<svg width="64" height="64" viewBox="0 0 64 64" fill="none" xmlns="http://www.w3.org/2000/svg">
<path fill-rule="evenodd" clip-rule="evenodd" d="M29.416 34.136L15.1066 7.22133C15.0244 7.06672 14.9735 6.89744 14.9567 6.72313C14.9399 6.54883 14.9576 6.37294 15.0088 6.20548C15.1122 5.86729 15.3457 5.58402 15.658 5.418C15.9702 5.25197 16.3356 5.21679 16.6738 5.32018C16.8413 5.37138 16.997 5.45506 17.1321 5.56644C17.2672 5.67782 17.3791 5.81472 17.4613 5.96933L31.772 32.884L33.8013 31.804C34.4198 31.4752 35.097 31.2714 35.7943 31.2044C36.4916 31.1373 37.1952 31.2083 37.8651 31.4132C38.5349 31.6181 39.1578 31.9529 39.6982 32.3986C40.2386 32.8443 40.686 33.3921 41.0146 34.0107L41.8786 35.636L51.0386 49.0413L39.388 55.2347L35.352 47.2573L32.9733 48.4613L37.0333 56.488L32.0386 59.1427L26.0453 44.052L25.1826 42.428C24.8538 41.8096 24.6499 41.1324 24.5828 40.4352C24.5156 39.738 24.5865 39.0344 24.7913 38.3646C24.996 37.6947 25.3308 37.0718 25.7763 36.5313C26.2219 35.9909 26.7695 35.5435 27.388 35.2147L29.416 34.136ZM35.052 34.16L28.6386 37.5693C28.3294 37.7337 28.0556 37.9574 27.8328 38.2277C27.61 38.4979 27.4427 38.8094 27.3403 39.1443C27.2379 39.4792 27.2025 39.831 27.236 40.1796C27.2696 40.5282 27.3715 40.8668 27.536 41.176L28.3986 42.8L39.5226 36.8853L38.6586 35.2627C38.4942 34.9534 38.2705 34.6796 38.0003 34.4568C37.7301 34.2341 37.4186 34.0667 37.0837 33.9643C36.7488 33.8619 36.397 33.8265 36.0484 33.8601C35.6998 33.8936 35.3612 33.9956 35.052 34.16Z" fill="#060607"/>
<path d="M23.6906 47.1467C23.4645 46.875 23.1396 46.7042 22.7876 46.672C22.4355 46.6397 22.0851 46.7486 21.8133 46.9747H21.816L21.8013 46.9853L21.7173 47.0493C21.598 47.139 21.4762 47.2252 21.352 47.308C21.0213 47.528 20.528 47.828 19.8933 48.1293C18.262 48.9134 16.4766 49.3247 14.6666 49.3333C14.313 49.3333 13.9739 49.4738 13.7238 49.7239C13.4738 49.9739 13.3333 50.313 13.3333 50.6667C13.3333 51.0203 13.4738 51.3594 13.7238 51.6095C13.9739 51.8595 14.313 52 14.6666 52C16.8733 51.9915 19.0504 51.4918 21.04 50.5373C21.6606 50.2435 22.2594 49.9057 22.832 49.5267C23.0463 49.3833 23.2554 49.232 23.4586 49.0733L23.4986 49.0427L23.512 49.032L23.516 49.0267H23.5186L23.52 49.024C23.7915 48.7976 23.962 48.4727 23.994 48.1207C24.026 47.7686 23.9169 47.4183 23.6906 47.1467ZM26.4426 53.9267C26.5398 54.0723 26.6074 54.2357 26.6414 54.4075C26.6755 54.5793 26.6754 54.7561 26.6411 54.9278C26.6068 55.0996 26.539 55.2629 26.4416 55.4084C26.3441 55.5539 26.219 55.6788 26.0733 55.776L26.0706 55.7787L26.0653 55.7813L26.052 55.7893L26.0106 55.816C25.7798 55.9628 25.5455 56.1042 25.308 56.24C24.84 56.508 24.1746 56.864 23.3746 57.2187C21.8013 57.9187 19.6013 58.6667 17.3333 58.6667C16.9797 58.6667 16.6406 58.5262 16.3905 58.2761C16.1405 58.0261 16 57.6869 16 57.3333C16 56.9797 16.1405 56.6406 16.3905 56.3905C16.6406 56.1405 16.9797 56 17.3333 56C19.064 56 20.8666 55.4147 22.292 54.7813C23.0346 54.45 23.7551 54.0715 24.4493 53.648C24.4882 53.6251 24.5264 53.6011 24.564 53.576L24.5906 53.56L24.5933 53.5573C24.739 53.4601 24.9024 53.3926 25.0742 53.3585C25.2459 53.3245 25.4228 53.3246 25.5945 53.3589C25.7662 53.3932 25.9295 53.461 26.075 53.5584C26.2206 53.6558 26.3455 53.781 26.4426 53.9267Z" fill="#060607"/>
</svg>
