<svg width="109" height="16" viewBox="0 0 109 16" fill="none" xmlns="http://www.w3.org/2000/svg">
<g clip-path="url(#clip0_37_569)">
<path fill-rule="evenodd" clip-rule="evenodd" d="M101 2.00777C100.817 1.98266 100.625 2.03539 100.478 2.16879L95.211 6.93545C94.9473 7.17406 94.926 7.58086 95.1633 7.84573C95.4023 8.1125 95.8127 8.134 96.0782 7.89368L96.4739 7.53561V12.7047V13C96.4739 13.5523 96.9216 14 97.4739 14H97.7626H104.206H104.495C105.047 14 105.495 13.5523 105.495 13V12.7047V7.50758L105.922 7.89368C106.187 8.134 106.598 8.1125 106.837 7.84573C107.074 7.58086 107.053 7.17406 106.789 6.93545L101.522 2.16879C101.375 2.03539 101.183 1.98266 101 2.00777ZM97.7626 6.36929V7.22798V8.18566V8.22798V10.7047V12V12.0423V12.7047H98.4295H98.4739H99.7626H102.206H103.495H103.539H104.206V12.0423V12V10.7047V8.22798V8.18566V7.22798V6.34125L101 3.43945L97.7626 6.36929Z" fill="#5F6368"/>
<path fill-rule="evenodd" clip-rule="evenodd" d="M75.9979 6.33122V2.80455C75.9979 2.50455 75.6379 2.35788 75.4312 2.57122L74.2446 3.75788C73.0379 2.55122 71.3179 1.85788 69.4379 2.02455C66.6446 2.27788 64.3446 4.52455 64.0379 7.31788C63.6379 10.9312 66.4579 13.9979 69.9979 13.9979C73.0579 13.9979 75.5846 11.7046 75.9512 8.74455C75.9979 8.34455 75.6846 7.99788 75.2846 7.99788C74.9512 7.99788 74.6712 8.24455 74.6312 8.57122C74.3446 10.8979 72.3379 12.6979 69.9312 12.6645C67.4579 12.6312 65.3712 10.5445 65.3312 8.06455C65.2912 5.46455 67.4046 3.33122 69.9979 3.33122C71.2846 3.33122 72.4512 3.85788 73.2979 4.69788L71.9046 6.09122C71.6912 6.30455 71.8379 6.66455 72.1379 6.66455H75.6646C75.8512 6.66455 75.9979 6.51788 75.9979 6.33122Z" fill="#5F6368"/>
<path fill-rule="evenodd" clip-rule="evenodd" d="M33.7701 8.61704H42.3721L38.614 12.3751C38.3137 12.6754 38.3137 13.1683 38.614 13.4686C38.9143 13.769 39.3995 13.769 39.6998 13.4686L44.7747 8.39371C45.0751 8.09337 45.0751 7.60821 44.7747 7.30788L39.7075 2.22525C39.4072 1.92492 38.922 1.92492 38.6217 2.22525C38.3214 2.52559 38.3214 3.01075 38.6217 3.31109L42.3721 7.07685H33.7701C33.3465 7.07685 33 7.42339 33 7.84694C33 8.2705 33.3465 8.61704 33.7701 8.61704Z" fill="#BABCBE"/>
<path fill-rule="evenodd" clip-rule="evenodd" d="M13.2299 7.07685H4.62795L8.38601 3.31879C8.68635 3.01845 8.68635 2.52559 8.38601 2.22525C8.08567 1.92492 7.60051 1.92492 7.30018 2.22525L2.22525 7.30018C1.92492 7.60051 1.92492 8.08567 2.22525 8.38601L7.30018 13.4609C7.60051 13.7613 8.08567 13.7613 8.38601 13.4609C8.68635 13.1606 8.68635 12.6754 8.38601 12.3751L4.62795 8.61704H13.2299C13.6535 8.61704 14 8.2705 14 7.84694C14 7.42339 13.6535 7.07685 13.2299 7.07685Z" fill="#5F6368"/>
</g>
<defs>
<clipPath id="clip0_37_569">
<rect width="109" height="16" fill="white"/>
</clipPath>
</defs>
</svg>
