<svg width="64" height="64" viewBox="0 0 64 64" fill="none" xmlns="http://www.w3.org/2000/svg">
<path d="M23.3333 61.3333C21.9999 61.3333 20.8328 60.8995 19.8319 60.032C18.8311 59.1644 18.2426 58.0649 18.0666 56.7333L13.7333 24.3333C13.6444 23.5333 13.8666 22.8338 14.3999 22.2347C14.9333 21.6355 15.5999 21.3351 16.3999 21.3333H47.5999C48.3999 21.3333 49.0666 21.6338 49.5999 22.2347C50.1333 22.8355 50.3555 23.5351 50.2666 24.3333L45.9333 56.7333C45.7555 58.0667 45.1662 59.1671 44.1653 60.0347C43.1644 60.9022 41.9982 61.3351 40.6666 61.3333H23.3333ZM31.9999 42.6667C34.2222 42.6667 36.1111 41.8889 37.6666 40.3333C39.2222 38.7778 39.9999 36.8889 39.9999 34.6667V32C39.9999 31.2444 39.7439 30.6107 39.2319 30.0987C38.7199 29.5867 38.0871 29.3315 37.3333 29.3333C36.5777 29.3333 35.9439 29.5893 35.4319 30.1013C34.9199 30.6133 34.6648 31.2462 34.6666 32V34.6667C34.6666 35.4222 34.4106 36.056 33.8986 36.568C33.3866 37.08 32.7537 37.3351 31.9999 37.3333C31.2444 37.3333 30.6106 37.0773 30.0986 36.5653C29.5866 36.0533 29.3315 35.4204 29.3333 34.6667V32C29.3333 31.2444 29.0773 30.6107 28.5653 30.0987C28.0533 29.5867 27.4204 29.3315 26.6666 29.3333C25.9111 29.3333 25.2773 29.5893 24.7653 30.1013C24.2533 30.6133 23.9982 31.2462 23.9999 32V34.6667C23.9999 36.8889 24.7777 38.7778 26.3333 40.3333C27.8888 41.8889 29.7777 42.6667 31.9999 42.6667ZM39.9999 18.6667C38.8888 18.6667 37.9439 18.2773 37.1653 17.4987C36.3866 16.72 35.9982 15.776 35.9999 14.6667C35.9999 13.5555 36.3893 12.6107 37.1679 11.832C37.9466 11.0533 38.8906 10.6649 39.9999 10.6667C41.1111 10.6667 42.0559 11.056 42.8346 11.8347C43.6133 12.6133 44.0017 13.5573 43.9999 14.6667C43.9999 15.7778 43.6106 16.7227 42.8319 17.5013C42.0533 18.28 41.1093 18.6684 39.9999 18.6667ZM26.6666 16C24.7999 16 23.2222 15.3555 21.9333 14.0667C20.6444 12.7778 19.9999 11.2 19.9999 9.33332C19.9999 7.46666 20.6444 5.88888 21.9333 4.59999C23.2222 3.3111 24.7999 2.66666 26.6666 2.66666C28.5333 2.66666 30.1111 3.3111 31.3999 4.59999C32.6888 5.88888 33.3333 7.46666 33.3333 9.33332C33.3333 11.2 32.6888 12.7778 31.3999 14.0667C30.1111 15.3555 28.5333 16 26.6666 16Z" fill="#060607"/>
</svg>
