<svg width="64" height="64" viewBox="0 0 64 64" fill="none" xmlns="http://www.w3.org/2000/svg">
<path d="M44.5866 27.8133C39.1466 22.3733 38.6666 12.4267 38.6666 10.6667H34.6666V16H24V10.6667H18.6666C18.6666 7.73333 21.0666 5.33333 24 5.33333H42.6666V7.99999C42.6666 8.21333 42.7733 20.3467 47.4133 24.9867L44.5866 27.8133ZM45.3333 5.33333V10.6667H48V5.33333H45.3333ZM40 32C34.6666 26.6667 34.6666 18.6667 34.6666 18.6667H24V24C24 26.6667 24 26.6667 21.3333 29.3333C18.6666 32 18.6666 34.6667 18.6666 34.6667V53.3333C18.6666 56.2667 21.0666 58.6667 24 58.6667H34.6666C37.6 58.6667 40 56.2667 40 53.3333V32Z" fill="#33B5FF"/>
</svg>
